<svg width="42" height="30" viewBox="0 0 42 30" fill="none" xmlns="http://www.w3.org/2000/svg">
<path d="M39 0.951904H3C2.20435 0.951904 1.44129 1.25278 0.87868 1.78834C0.31607 2.3239 0 3.05028 0 3.80767V26.6538C0 27.4112 0.31607 28.1376 0.87868 28.6732C1.44129 29.2087 2.20435 29.5096 3 29.5096H39C39.7957 29.5096 40.5587 29.2087 41.1213 28.6732C41.6839 28.1376 42 27.4112 42 26.6538V3.80767C42 3.05028 41.6839 2.3239 41.1213 1.78834C40.5587 1.25278 39.7957 0.951904 39 0.951904ZM39 3.80767V8.09133H3V3.80767H39ZM3 26.6538V10.9471H39V26.6538H3Z" fill="#908989"/>
</svg>
