<svg width="26" height="25" viewBox="0 0 26 25" fill="none" xmlns="http://www.w3.org/2000/svg">
<path d="M25.875 8.0877H19.6875V3.80405C19.6875 1.9835 18.3469 0.591309 16.5938 0.591309H10.4062C8.65312 0.591309 7.3125 1.9835 7.3125 3.80405V8.0877H1.125C0.50625 8.0877 0.09375 8.51607 0.09375 9.15862V9.3728L2.05313 22.3309C2.15625 23.4018 3.08438 24.1514 4.11562 24.1514H12.4688V22.0096H4.11562L2.3625 10.2295H25.875V8.0877ZM9.375 3.80405C9.375 3.1615 9.7875 2.73314 10.4062 2.73314H16.5938C17.2125 2.73314 17.625 3.1615 17.625 3.80405V8.0877H9.375V3.80405Z" fill="#1B2C57"/>
</svg>
